<svg width="1186" height="695" viewBox="0 0 1186 695" fill="none" xmlns="http://www.w3.org/2000/svg">
<g clip-path="url(#clip0_1371_2)">
<path d="M649.759 79.056L653.439 76.7563C787.281 95.6138 733.928 195.42 681.035 155.866C677.356 128.729 662.638 99.2933 649.759 79.056ZM619.863 178.863L623.543 176.563C751.406 194.96 696.673 291.548 646.54 251.533C645.16 225.776 633.201 197.26 619.863 178.863ZM959.758 324.663H987.814V228.996H960.218V291.548C960.218 302.586 960.218 313.625 959.758 324.663ZM887.088 318.224V436.428C903.645 394.114 906.405 346.28 906.405 292.008V202.779C905.025 203.239 903.185 203.239 901.346 203.239H844.313V290.628L863.171 269.471L904.105 310.405C900.426 313.625 894.447 317.304 887.088 318.224ZM797.859 409.292H831.895V307.645H797.859V409.292ZM987.814 122.75H960.218V216.118H987.814V122.75ZM1008.97 80.8957L1062.32 122.29C1059.56 125.51 1054.05 129.189 1045.77 130.569V440.568C1045.77 480.582 1037.95 501.739 977.235 507.259C976.316 488.401 974.476 474.143 968.957 465.864C963.437 457.125 955.618 451.146 937.221 447.467V441.028C937.221 441.028 971.256 443.327 979.535 443.327C985.974 443.327 987.814 440.108 987.814 434.588V337.541H958.838C954.239 406.072 932.621 467.244 843.393 509.558L838.794 505.879C860.871 486.102 875.589 464.024 885.708 439.648C880.189 442.867 860.411 448.847 842.014 448.847H831.895V422.17H797.859V472.303C797.859 477.823 773.483 490.701 749.106 490.701H740.827V271.31L788.201 290.168V203.239H739.907C727.489 256.592 714.151 317.764 710.471 337.081C707.712 353.179 704.952 370.197 705.412 382.615C706.332 409.292 727.489 424.47 726.109 467.704C725.189 492.541 707.712 509.098 683.335 509.098C671.836 509.098 658.958 503.579 654.819 484.722C664.017 435.968 662.638 388.595 651.599 381.236C645.16 376.636 637.341 374.337 627.682 373.417V365.138H647.92C654.819 365.138 656.658 365.138 661.718 355.479C671.376 338.001 671.376 338.001 745.427 148.047L752.326 149.887C749.566 161.845 746.346 175.643 742.667 190.361H788.201V75.8364L861.331 82.2756C860.411 88.7147 856.732 93.3141 844.313 95.1538V183.002L866.85 144.367C866.85 144.367 889.847 167.824 906.405 187.142V87.7948L968.497 109.872H983.215L1008.97 80.8957Z" fill="#333333"/>
<path d="M503.893 120.449L560.926 174.262C557.246 178.401 552.647 179.781 542.988 180.241C525.51 194.959 498.374 213.357 474.457 225.315L488.715 237.274C485.036 241.413 479.976 242.793 470.318 243.713C445.941 258.431 416.965 274.069 387.529 286.027L391.208 286.487C390.288 293.386 385.689 297.066 375.57 298.445V336.62H467.098L499.754 293.386C499.754 293.386 536.549 322.362 558.626 342.14C557.246 347.199 552.187 349.499 545.748 349.499H375.57V436.427C375.57 481.501 364.072 505.418 286.342 511.857C284.043 490.7 281.283 475.982 271.164 465.403C261.046 455.284 250.007 448.385 219.651 442.866V437.347C219.651 437.347 285.422 441.486 297.381 441.486C304.28 441.486 306.58 438.727 306.58 433.207V349.499H134.103L130.423 336.62H306.58V279.588L359.933 283.727C373.271 268.549 386.149 249.692 395.808 234.514H215.512L211.372 221.636H397.647L431.223 188.06L467.098 218.876C470.318 202.778 473.077 182.541 474.457 166.443H203.553C209.073 202.778 198.494 228.995 180.097 240.493C162.159 251.992 132.263 243.713 124.444 219.336C118.465 196.339 131.803 179.321 150.66 170.583C165.378 163.223 186.076 144.366 185.616 124.589H190.675C195.274 134.707 198.494 144.366 200.794 153.565H339.235C333.256 151.725 326.817 148.965 320.838 144.366C321.298 118.609 310.259 91.933 292.322 76.755L294.621 74.4553C415.585 67.5563 405.006 141.146 363.612 153.565H470.778L503.893 120.449Z" fill="#333333"/>
<path d="M1078.95 688.68L1086.15 689.4V693.12H1052.19V689.4L1059.39 688.68C1059.51 681.72 1059.63 671.52 1059.63 664.56V648.36C1059.63 637.8 1056.99 634.68 1051.23 634.68C1046.79 634.68 1042.35 637.2 1037.79 641.76C1038.15 643.92 1038.27 646.2 1038.27 648.72V664.56C1038.27 671.64 1038.39 681.84 1038.63 688.8L1045.35 689.4V693.12H1011.39V689.4L1019.07 688.68C1019.19 681.72 1019.31 671.52 1019.31 664.56V648.36C1019.31 638.52 1016.79 634.68 1011.03 634.68C1006.71 634.68 1002.15 637.44 997.826 641.64V664.56C997.826 671.28 997.945 681.72 998.065 688.8L1004.91 689.4V693.12H970.226V689.4L978.266 688.68C978.386 681.6 978.505 671.28 978.505 664.56V654.6C978.505 646.68 978.386 642.84 978.146 636.96L969.146 636V633.24L995.185 625.68L996.865 626.88L997.706 637.56C1004.67 629.28 1011.15 625.56 1019.31 625.56C1028.31 625.56 1034.43 629.64 1036.95 638.04C1044.87 628.56 1051.35 625.56 1059.15 625.56C1072.59 625.56 1078.71 633.12 1078.71 649.44V664.56C1078.71 671.64 1078.83 681.84 1078.95 688.68Z" fill="#22BB6D" fill-opacity="0.38"/>
<path d="M916.019 695.16C895.499 695.16 882.059 681.12 882.059 660C882.059 638.76 897.179 625.56 916.019 625.56C934.979 625.56 950.099 638.52 950.099 660C950.099 681.48 936.419 695.16 916.019 695.16ZM916.019 690.96C924.659 690.96 929.339 681.12 929.339 660.24C929.339 639.24 924.659 629.76 916.019 629.76C907.379 629.76 902.579 639.24 902.579 660.24C902.579 681.12 907.379 690.96 916.019 690.96Z" fill="#22BB6D" fill-opacity="0.38"/>
<path d="M844.827 639.24L843.627 630C842.427 629.88 841.347 629.76 840.267 629.76C829.587 629.76 821.787 640.2 821.787 658.56C821.787 676.44 830.547 686.64 843.387 686.64C850.347 686.64 855.507 683.52 859.827 678.12L862.227 679.68C856.707 689.64 847.947 695.16 834.867 695.16C816.627 695.16 801.387 682.8 801.387 660.48C801.387 638.16 817.707 625.56 837.747 625.56C851.307 625.56 860.907 633.84 862.467 644.64C861.267 648.96 858.627 651 854.547 651C849.507 651 845.307 648.12 844.827 639.24Z" fill="#22BB6D" fill-opacity="0.38"/>
<path d="M767.97 695.04C761.85 695.04 756.93 690.24 756.93 684.24C756.93 678.36 761.85 673.32 767.97 673.32C774.09 673.32 779.01 678.36 779.01 684.24C779.01 690.24 774.09 695.04 767.97 695.04Z" fill="#22BB6D" fill-opacity="0.38"/>
<path d="M724.602 689.04L732.162 689.64V693.24L705.762 694.8L705.162 682.8C699.642 689.76 691.722 695.16 682.962 695.16C670.962 695.16 663.402 688.68 663.642 670.44L664.122 634.8L655.722 633.12V629.88L682.362 626.28L683.922 627.48L683.202 647.04V672.24C683.202 681.84 686.922 684.84 692.682 684.84C697.242 684.84 701.562 682.56 705.042 679.08L705.522 634.68L697.482 633.12V630.48L723.522 626.28L725.082 627.48L724.602 647.04V689.04Z" fill="#22BB6D" fill-opacity="0.38"/>
<path d="M630.727 688.8L637.927 689.4V693.12H603.127V689.4L610.807 688.68C610.927 681.72 611.047 671.52 611.047 664.56V647.28C611.047 637.92 607.567 634.56 602.287 634.56C598.447 634.56 593.767 636.6 588.847 641.04V664.56C588.847 671.28 588.967 681.72 589.087 688.8L596.047 689.4V693.12H561.367V689.4L569.287 688.68C569.407 681.6 569.527 671.28 569.527 664.56V603.12L560.767 602.28V599.16L587.287 594L588.967 595.08L588.607 614.4V637.68C595.807 629.16 601.927 625.56 610.927 625.56C622.567 625.56 630.487 632.64 630.487 648.96V664.56C630.487 671.64 630.607 681.84 630.727 688.8Z" fill="#22BB6D" fill-opacity="0.38"/>
<path d="M523.879 613.68C518.239 613.68 513.559 609.6 513.559 603.96C513.559 598.2 518.239 594.12 523.879 594.12C529.639 594.12 534.319 598.2 534.319 603.96C534.319 609.6 529.639 613.68 523.879 613.68ZM534.199 688.68L541.519 689.4V693.12H506.479V689.4L514.399 688.68C514.519 681.6 514.639 671.28 514.639 664.56V654.96C514.639 647.28 514.519 642.84 514.279 636.72L505.279 635.76V632.88L532.759 625.68L534.439 626.88L533.959 646.08V664.56C533.959 671.28 534.079 681.72 534.199 688.68Z" fill="#22BB6D" fill-opacity="0.38"/>
<path d="M480.755 671.04H487.475L486.275 693.12H430.115V689.4L466.115 631.8H442.835L437.435 648.24L430.835 647.76L431.795 627.6H486.035V631.44L451.115 688.92H474.995L480.755 671.04Z" fill="#22BB6D" fill-opacity="0.38"/>
<path d="M393.707 613.68C388.067 613.68 383.387 609.6 383.387 603.96C383.387 598.2 388.067 594.12 393.707 594.12C399.467 594.12 404.147 598.2 404.147 603.96C404.147 609.6 399.467 613.68 393.707 613.68ZM404.027 688.68L411.347 689.4V693.12H376.307V689.4L384.227 688.68C384.347 681.6 384.467 671.28 384.467 664.56V654.96C384.467 647.28 384.347 642.84 384.107 636.72L375.107 635.76V632.88L402.587 625.68L404.267 626.88L403.787 646.08V664.56C403.787 671.28 403.907 681.72 404.027 688.68Z" fill="#22BB6D" fill-opacity="0.38"/>
<path d="M308.933 637.44V683.28C312.053 685.68 315.413 686.64 319.013 686.64C327.413 686.64 334.973 681.6 334.973 659.64C334.973 640.92 328.373 633.84 319.373 633.84C315.653 633.84 312.533 634.32 308.933 637.44ZM308.693 614.4V633.96C314.573 628.2 321.533 625.56 328.973 625.56C343.973 625.56 355.613 637.68 355.613 660.12C355.613 679.92 344.453 695.16 327.533 695.16C320.333 695.16 313.613 692.52 308.453 686.64L305.933 694.92L281.453 693.12V689.4L289.373 688.68C289.493 681.72 289.613 671.28 289.613 664.56V603.12L280.853 602.28V599.16L307.373 594L309.053 595.08L308.693 614.4Z" fill="#22BB6D" fill-opacity="0.38"/>
<path d="M245.572 695.04C239.452 695.04 234.532 690.24 234.532 684.24C234.532 678.36 239.452 673.32 245.572 673.32C251.692 673.32 256.612 678.36 256.612 684.24C256.612 690.24 251.692 695.04 245.572 695.04Z" fill="#22BB6D" fill-opacity="0.38"/>
<path d="M192.004 613.68C186.364 613.68 181.684 609.6 181.684 603.96C181.684 598.2 186.364 594.12 192.004 594.12C197.764 594.12 202.444 598.2 202.444 603.96C202.444 609.6 197.764 613.68 192.004 613.68ZM202.324 688.68L209.644 689.4V693.12H174.604V689.4L182.524 688.68C182.644 681.6 182.764 671.28 182.764 664.56V654.96C182.764 647.28 182.644 642.84 182.404 636.72L173.404 635.76V632.88L200.884 625.68L202.564 626.88L202.084 646.08V664.56C202.084 671.28 202.204 681.72 202.324 688.68Z" fill="#22BB6D" fill-opacity="0.38"/>
<path d="M148.88 671.04H155.6L154.4 693.12H98.24V689.4L134.24 631.8H110.96L105.56 648.24L98.96 647.76L99.92 627.6H154.16V631.44L119.24 688.92H143.12L148.88 671.04Z" fill="#22BB6D" fill-opacity="0.38"/>
</g>
<defs>
<clipPath id="clip0_1371_2">
<rect width="1186" height="695" fill="white"/>
</clipPath>
</defs>
</svg>
